<svg width="111" height="42" viewBox="0 0 111 42" fill="none" xmlns="http://www.w3.org/2000/svg">
<mask id="mask0_18888_3054" style="mask-type:luminance" maskUnits="userSpaceOnUse" x="0" y="0" width="111" height="42">
<path d="M110.88 0H0V42H110.88V0Z" fill="white"/>
</mask>
<g mask="url(#mask0_18888_3054)">
<path d="M30.7101 27.6427L29.7019 29.9563L28.646 31.0772L27.9981 30.8388L24.8308 34.6306L24.687 34.3681L23.1027 35.6561L16.918 41.9953V9.58793V0L27.6384 4.86545L24.4228 5.91494L24.5667 6.34448L25.1905 6.15345L30.038 9.4684V10.0409L29.6542 10.4704L33.6858 16.2899L33.2778 24.6372L33.2536 25.1383L32.7978 25.4008L31.8616 29.5507L31.6458 29.9563" fill="#00081F"/>
<path d="M16.918 0.74707L27.1101 4.81792L20.8712 5.96235L16.9357 10.2236L16.918 0.74707Z" fill="#00081F"/>
<path d="M16.918 9.58784L16.9357 0.779297L18.3118 1.70105L16.918 9.58784Z" fill="#D1B17E"/>
<path d="M19.3996 2.40083L18.3118 1.70117L16.918 9.58797L19.3996 2.40083Z" fill="#FFEEC9"/>
<path d="M20.4555 2.75071L19.3996 2.40088L16.918 9.58805L20.4555 2.75071Z" fill="#F7DFAD"/>
<path d="M27.3342 4.76418L20.4555 2.75073L16.918 9.58803L20.0711 5.00444L27.3342 4.76418Z" fill="#BE9961"/>
<path d="M16.918 10.1921L20.2951 5.64478L20.7432 5.99461L16.918 10.1921Z" fill="#E8C798"/>
<path d="M20.3828 5.54938L20.8946 5.91504L27.3335 4.76416L22.8857 4.91124L20.3828 5.54938Z" fill="#BE9961"/>
<path d="M24.4228 5.91479L21.3753 6.60627L16.918 11.4243V13.2367L17.7517 11.6387L19.9355 9.39676L24.5667 6.34433L24.4228 5.91479Z" fill="#071232"/>
<path d="M24.9979 6.86881L30.0371 9.46826L25.1895 6.15332L19.9346 8.56232L24.9979 6.86881Z" fill="url(#paint0_linear_18888_3054)"/>
<path d="M19.598 9.32544L22.3579 9.94536L25.1654 15.1449C25.1654 15.1449 24.4697 15.8363 24.3253 17.5538L24.1814 18.6273L22.2376 20.7263L22.1657 23.7313L20.174 25.6867L17.2461 24.5183L17.15 23.7553L17.966 22.4199L18.5662 22.2288L19.5019 21.4893L19.6222 20.6308L19.2384 21.2274L18.4943 20.9982L16.9342 21.2514L16.916 13.2375L17.857 11.5293L18.3097 10.7329L19.598 9.32544Z" fill="url(#paint1_linear_18888_3054)"/>
<path d="M22.2383 20.7259L21.8645 20.3086L21.0414 19.3903L20.1028 17.3154L20.8946 16.3374L22.125 16.0034L23.2464 14.4294L22.4782 14.7159L20.7413 14.7394L20.5827 14.0239L19.7909 15.2164L19.9347 15.7414L19.2148 16.8859L20.1028 19.3903L19.6706 20.4873L20.5638 19.5908L22.2383 20.7259Z" fill="#031131"/>
<path d="M21.7452 19.334L21.2888 18.3208L20.497 17.0802L21.961 16.5998L23.2462 14.4292L22.1248 16.0032L20.8944 16.3372L20.1025 17.3152L21.0412 19.3902L22.2381 20.7257L21.7688 19.8186L21.7452 19.334Z" fill="#D1B379"/>
<path d="M19.6165 10.0802L20.1024 10.2946L23.2461 14.4294L21.9607 16.5998L25.1657 15.1449L23.7967 13.6963L19.5983 9.32544L18.3106 10.7329L18.083 11.1332L18.6856 10.6046L19.6165 10.0802Z" fill="#FCEFCA"/>
<path d="M23.8446 13.6963L25.1647 15.1449L22.386 9.99987L19.6934 9.43262L23.8446 13.6963Z" fill="#B99B63"/>
<path d="M20.8539 12.7522L20.582 14.0238L20.7406 14.7392L21.6739 14.7264L20.8539 12.7522Z" fill="#D2B686"/>
<path d="M23.1189 14.2631L23.2457 14.4295L22.4774 14.7161L21.6738 14.7267L19.7842 10.1548L20.102 10.2948L23.1189 14.2631Z" fill="#7E5E2C"/>
<path d="M23.6543 10.9714L28.1422 13.6424L30.5176 17.6968L32.9891 23.8262L32.8453 24.1602L32.0052 23.0632L29.8455 18.6508L26.8699 15.5028L26.9182 14.3104L23.6543 10.9714Z" fill="url(#paint2_linear_18888_3054)"/>
<path d="M25.3008 15.8843L29.3171 18.8892L31.8127 22.6712L32.0857 23.1687L25.3008 15.8843Z" fill="#92703B"/>
<path d="M25.166 19.0088L30.829 23.8502L29.1015 24.2558L25.166 19.0088Z" fill="url(#paint3_linear_18888_3054)"/>
<path d="M27.8535 30.1465L29.1017 24.2556L30.8291 23.8501L28.9814 29.2405L27.8535 30.1465Z" fill="url(#paint4_linear_18888_3054)"/>
<path d="M24.8301 34.6307L27.8534 30.1467L28.9813 29.2407L28.8133 29.9562L24.8301 34.6307Z" fill="#EDDBB9"/>
<path d="M23.0059 20.1539L23.6532 19.5269L27.7525 30.2956L24.8294 34.6307L25.8134 30.3137L23.0059 20.1539Z" fill="#102139"/>
<path d="M19.7074 20.4756L16.918 19.7185V21.2684L18.4774 21.0159L19.2215 21.245L19.7074 20.4756Z" fill="#EED4A3"/>
<path d="M16.918 19.2075L17.0412 19.2643L19.5617 20.4293L16.918 19.7003V19.2075Z" fill="#6E502A"/>
<path d="M18.8704 15.9717L17.0586 19.2643L19.5785 20.4293L20.1026 19.3903L19.2147 16.8859L18.8704 15.9717Z" fill="url(#paint5_linear_18888_3054)"/>
<path d="M16.918 23.8504L17.0955 23.7074L17.5329 22.8278V22.414L18.2899 21.524H19.2156L19.3996 21.4285V21.1741L19.2156 21.3435L18.5034 21.0786H18.3118L16.918 21.4601V23.8504Z" fill="#03152E"/>
<path d="M17.1747 40.9752L23.1979 26.7603L21.2304 36.3956L17.127 41.4996L17.1747 40.9752Z" fill="#010D25"/>
<path d="M23.1977 25.2339L16.9346 35.9662V41.2137L23.1977 25.2339Z" fill="#12253E"/>
<path d="M17.1264 41.4996C17.1506 41.4281 21.23 36.3956 21.23 36.3956L23.1975 26.7603L23.1013 35.6567L16.916 41.9959L17.1264 41.4996Z" fill="url(#paint6_linear_18888_3054)"/>
<path d="M18.7416 25.9013L20.0853 26.6407L21.2131 25.7583V28.1913L20.8771 28.3817L19.5092 30.4332V27.7143L16.918 33.8197V26.0923L18.7416 25.9013Z" fill="url(#paint7_linear_18888_3054)"/>
<path d="M16.9189 14.469L18.8698 15.9715L17.058 19.2641L16.9343 19.2073L16.9189 14.469Z" fill="#B69355"/>
<path d="M19.0205 16.3671L18.8342 16.0402L19.4556 15.3516L17.5772 12.0408L16.918 13.2368L16.9204 14.4691L18.8713 15.9716L18.9143 16.0431L19.0205 16.3671Z" fill="url(#paint8_linear_18888_3054)"/>
<path d="M19.6946 15.1132L19.4546 15.3516L17.5762 12.0408L19.6946 15.1132Z" fill="#6A4B28"/>
<path d="M17.0586 19.2643L19.0532 16.4557C19.0532 16.4557 18.9759 15.9294 18.871 15.9717C18.7661 16.0138 17.0586 19.2643 17.0586 19.2643Z" fill="#C9A96E"/>
<path d="M20.3509 15.7278C20.3509 15.7278 20.2996 15.1963 20.8556 15.1447C21.4115 15.0932 21.6238 15.2128 21.6238 15.2128C21.6238 15.2128 21.6144 15.6153 21.2294 15.7788C20.8449 15.9429 20.4022 15.7278 20.4022 15.7278" fill="#F5EFCC"/>
<path d="M20.8041 15.2126C20.794 15.2273 20.7451 15.3245 20.7451 15.3245L20.7746 15.4464L20.8336 15.4951H20.9809L21.0841 15.4464L21.1283 15.3732V15.2905L21.0988 15.2126H20.8041Z" fill="#00030D"/>
<path d="M22.1484 20.5518L21.9345 19.6084V19.2076L21.2977 17.3752L23.4102 16.0403V15.9419L21.9609 16.6L20.4971 17.0804L21.2889 18.3209L21.7452 19.3342L21.7687 19.8187L22.1484 20.5518Z" fill="url(#paint9_linear_18888_3054)"/>
<path d="M25.1057 15.2126L23.4094 15.9416V16.04L21.7598 18.1267L21.9336 19.2073L21.9531 19.693L22.1477 20.5515L22.2373 20.7256L24.1812 18.6272L24.5649 15.9714L25.1057 15.2126Z" fill="#EFD29F"/>
<path d="M18.7109 26.0923L20.2309 27.3058L21.0416 26.4737L20.1625 27.9211L18.7109 26.0923Z" fill="#F4DFB7"/>
<path d="M18.353 26.2055L16.9833 27.2099L16.9668 26.0789L18.7527 25.9196L20.0969 26.6591L21.2248 25.7766V28.209L20.8888 28.4L19.5209 30.451V27.732L18.9006 29.1941L18.353 26.2055Z" fill="url(#paint10_linear_18888_3054)"/>
<path d="M18.3564 24.9615L22.1687 23.6289L19.4548 23.5486L18.5806 23.6435L17.1797 23.8504L17.2469 24.5184L18.3564 24.9615Z" fill="url(#paint11_linear_18888_3054)"/>
<path d="M21.2304 22.7218C21.2304 22.7218 21.7899 22.8934 21.8624 21.2509C21.8624 21.2509 22.0062 20.7199 21.4302 20.1786L20.5635 19.5908C20.5635 19.5908 21.1808 20.4475 20.7457 20.9087C20.7457 20.9087 20.6466 22.1815 21.2304 22.7218Z" fill="url(#paint12_linear_18888_3054)"/>
<path d="M17.1506 23.7548L18.4706 23.548L19.5785 23.4208L20.0661 23.1688L21.0407 22.5307L21.6733 21.974L21.76 21.8152L21.2294 21.9265L21.76 21.2509C21.76 21.2509 21.4015 21.0364 21.1273 21.2509C21.1273 21.2509 21.6532 20.5752 21.2294 20.3525C21.2294 20.3525 21.1639 20.9725 20.7447 20.9093L20.6132 20.6233L19.5012 21.49L18.5656 22.2295L17.9654 22.4205L17.1494 23.756L17.1506 23.7548Z" fill="#FDF0CE"/>
<path d="M18.2559 22.8171C18.2559 22.8171 19.7605 22.1778 20.0565 21.7577C20.3524 21.3375 20.6614 22.1596 18.2559 22.8171Z" fill="url(#paint13_linear_18888_3054)"/>
<path d="M19.709 22.6992C19.709 22.6992 20.6027 22.194 20.7578 21.911C20.9129 21.628 21.164 22.119 19.709 22.6992Z" fill="url(#paint14_linear_18888_3054)"/>
<path d="M18.7109 26.0923L20.1625 27.3058L21.0416 26.4737L20.1625 27.9211L18.7109 26.0923Z" fill="#F6E8C8"/>
<path d="M31.8447 24.2559L32.8045 25.1699L31.8447 29.6697V24.3431" fill="#CEB183"/>
<path d="M31.7976 24.1603L32.0866 23.1688L24.8707 15.6301L24.5664 16.5361L31.7976 24.1603Z" fill="#081935"/>
<path d="M3.01101 27.6465L4.03098 29.96L5.0993 31.081L5.75492 30.8425L8.95986 34.6351L9.10552 34.3725L10.708 35.6605L16.967 41.9997V9.59231V0.00439453L6.11869 4.86984L9.37264 5.91934L9.22698 6.34829L8.59555 6.15784L3.69079 9.47278V10.0452L4.07933 10.4748L0 16.2943L0.412709 24.6416L0.436882 25.1426L0.898523 25.4046L1.8454 29.5551L2.06413 29.96" fill="#00081F"/>
<path d="M16.9669 0.751709L6.65332 4.82197L12.966 5.96699L16.9486 10.2283L16.9669 0.751709Z" fill="#00081F"/>
<path d="M16.9669 9.5926L16.9487 0.783447L15.5566 1.70579L16.9669 9.5926Z" fill="#755528"/>
<path d="M14.4551 2.40548L15.5564 1.70581L16.9667 9.5926L14.4551 2.40548Z" fill="#FFEEC9"/>
<path d="M13.3867 2.75535L14.455 2.40552L16.9667 9.59267L13.3867 2.75535Z" fill="#F7DFAD"/>
<path d="M6.42578 4.76857L13.3864 2.75513L16.9664 9.59245L13.7749 5.00883L6.42578 4.76857Z" fill="#BE9961"/>
<path d="M16.9669 10.1968L13.5491 5.64893L13.0957 5.99876L16.9669 10.1968Z" fill="#E8C798"/>
<path d="M13.4595 5.55402L12.9412 5.91967L6.42578 4.7688L10.9267 4.91588L13.4595 5.55402Z" fill="#BE9961"/>
<path d="M9.37213 5.91968L12.4563 6.61114L16.9666 11.4291V13.2416L16.1223 11.6436L13.9132 9.40163L9.22656 6.34862L9.37213 5.91968Z" fill="#071232"/>
<path d="M8.78978 6.8737L3.69043 9.47314L8.59515 6.1582L13.9132 8.56661L8.78978 6.8737Z" fill="url(#paint15_linear_18888_3054)"/>
<path d="M14.2526 9.33008L11.4604 9.95L8.61914 15.1495C8.61914 15.1495 9.32314 15.8409 9.46872 17.5585L9.61437 18.632L11.5812 20.731L11.6543 23.736L13.6696 25.6914L16.6322 24.5229L16.7294 23.76L15.904 22.4245L15.2968 22.2335L14.3499 21.4939L14.2285 20.6355L14.617 21.232L15.3699 21.0029L16.9482 21.2561L16.9665 13.2421L16.0143 11.534L15.5562 10.7376L14.2526 9.33008Z" fill="url(#paint16_linear_18888_3054)"/>
<path d="M11.5825 20.7305L11.961 20.3133L12.7935 19.395L13.7433 17.32L12.9421 16.342L11.6968 16.008L10.5625 14.434L11.3396 14.7201L13.0971 14.7441L13.2581 14.0286L14.0593 15.221L13.9137 15.7461L14.6419 16.8905L13.7433 19.395L14.1808 20.4919L13.277 19.5954L11.5825 20.7305Z" fill="#031131"/>
<path d="M12.0813 19.3388L12.543 18.325L13.3442 17.0851L11.8632 16.6041L10.5625 14.4341L11.6968 16.0081L12.9421 16.3421L13.7433 17.3201L12.7935 19.3951L11.5825 20.7306L12.0571 19.8229L12.0813 19.3388Z" fill="#D1B379"/>
<path d="M14.2344 10.0848L13.7426 10.2993L10.5618 14.434L11.8625 16.6039L8.61914 15.1495L10.0046 13.7009L14.2526 9.33008L15.5562 10.737L15.7861 11.1373L15.1765 10.6092L14.2344 10.0848Z" fill="#FCEFCA"/>
<path d="M9.95516 13.7008L8.61914 15.1494L11.4309 10.0044L14.1559 9.43726L9.95516 13.7008Z" fill="#B99B63"/>
<path d="M12.9818 12.7563L13.2572 14.0285L13.0963 14.744L12.1523 14.7312L12.9818 12.7563Z" fill="#D2B686"/>
<path d="M10.6904 14.2675L10.5625 14.434L11.3396 14.72L12.1532 14.731L14.0646 10.1592L13.7433 10.2993L10.6904 14.2675Z" fill="#7E5E2C"/>
<path d="M10.1488 10.9756L5.60846 13.647L3.20414 17.7015L0.703125 23.8309L0.848755 24.1649L1.69893 23.068L3.88451 18.6555L6.89493 15.5076L6.84658 14.3145L10.1488 10.9756Z" fill="url(#paint17_linear_18888_3054)"/>
<path d="M8.48286 15.8889L4.41889 18.8938L1.89311 22.6753L1.61719 23.1733L8.48286 15.8889Z" fill="#92703B"/>
<path d="M8.61886 19.0134L2.88867 23.8549L4.63679 24.2603L8.61886 19.0134Z" fill="url(#paint18_linear_18888_3054)"/>
<path d="M5.89968 30.1514L4.63679 24.2604L2.88867 23.855L4.75824 29.2448L5.89968 30.1514Z" fill="url(#paint19_linear_18888_3054)"/>
<path d="M8.9605 34.6353L5.90119 30.1514L4.75977 29.2449L4.92956 29.9604L8.9605 34.6353Z" fill="#EDDBB9"/>
<path d="M10.8053 20.1581L10.1497 19.531L6.00195 30.2997L8.95992 34.6354L7.96408 30.3185L10.8053 20.1581Z" fill="#102139"/>
<path d="M14.1621 20.4622L16.985 19.7051V21.255L15.4067 21.0024L14.6538 21.2315L14.1621 20.4622Z" fill="#EED4A3"/>
<path d="M16.9851 19.2297L16.8601 19.2871L14.3096 20.4515L16.9851 19.7226V19.2297Z" fill="#6E502A"/>
<path d="M14.9911 15.9763L16.8248 19.269L14.2742 20.4339L13.7441 19.3949L14.6427 16.8905L14.9911 15.9763Z" fill="url(#paint20_linear_18888_3054)"/>
<path d="M16.9667 23.855L16.7862 23.712L16.3441 22.8319V22.4188L15.5777 21.528H14.6414L14.4551 21.4325V21.1782L14.6414 21.3481L15.3619 21.0833H15.5564L16.9667 21.4648V23.855Z" fill="#03152E"/>
<path d="M16.7059 40.9793L10.6113 26.7644L12.6024 36.4004L16.7542 41.5043L16.7059 40.9793Z" fill="#010D25"/>
<path d="M10.6113 25.2383L16.9488 35.9706V41.2175L10.6113 25.2383Z" fill="#12253E"/>
<path d="M16.7548 41.5042C16.7306 41.4327 12.6024 36.4003 12.6024 36.4003L10.6113 26.7649L10.7086 35.6613L16.9671 42.0006L16.7548 41.5042Z" fill="url(#paint21_linear_18888_3054)"/>
<path d="M15.1397 25.924L13.7795 26.6628L12.6387 25.781V28.2134L12.9783 28.4044L14.3626 30.4554V27.7364L16.9851 33.8424L16.9668 26.1144L15.1397 25.924Z" fill="url(#paint22_linear_18888_3054)"/>
<path d="M17.0003 14.4739L15.0264 15.9764L16.8599 19.269L16.9849 19.2121L17.0003 14.4739Z" fill="#B69355"/>
<path d="M14.8388 16.3718L15.0275 16.0448L14.3984 15.3564L16.2993 12.0449L16.9667 13.2415L16.9637 14.4739L14.9898 15.9763L14.9462 16.0472L14.8388 16.3718Z" fill="url(#paint23_linear_18888_3054)"/>
<path d="M14.1562 15.1178L14.3986 15.3564L16.2994 12.0449L14.1562 15.1178Z" fill="#6A4B28"/>
<path d="M16.8238 19.2689L14.8057 16.4603C14.8057 16.4603 14.884 15.934 14.9902 15.9763C15.0963 16.0185 16.8238 19.2689 16.8238 19.2689Z" fill="#C9A96E"/>
<path d="M13.4914 15.7327C13.4914 15.7327 13.5433 15.2012 12.9808 15.1496C12.4177 15.0981 12.2031 15.2176 12.2031 15.2176C12.2031 15.2176 12.2132 15.6202 12.6017 15.7837C12.9909 15.9478 13.4389 15.7327 13.4389 15.7327" fill="#F5EFCC"/>
<path d="M13.0334 15.2175C13.0435 15.2321 13.093 15.3294 13.093 15.3294L13.0629 15.4513L13.0034 15.4999H12.8543L12.7499 15.4513L12.7051 15.3781V15.2954L12.7352 15.2175H13.0334Z" fill="#00030D"/>
<path d="M11.6729 20.5565L11.8892 19.613V19.2122L12.5337 17.3798L10.3965 16.045V15.9465L11.8627 16.604L13.3438 17.0851L12.5425 18.3251L12.0809 19.3388L12.0567 19.8228L11.6729 20.5565Z" fill="url(#paint24_linear_18888_3054)"/>
<path d="M8.68066 15.2175L10.397 15.9465V16.0449L12.0654 18.1316L11.8897 19.2121L11.8703 19.6979L11.6734 20.5564L11.5826 20.7305L9.61575 18.6315L9.22717 15.9764L8.68066 15.2175Z" fill="#EFD29F"/>
<path d="M15.1513 26.0969L13.6136 27.3105L12.793 26.4784L13.682 27.9252L15.1513 26.0969Z" fill="#F4DFB7"/>
<path d="M15.5252 26.1742L16.9821 27.2096L16.9656 26.0787L15.1202 25.8883L13.7606 26.6271L12.6191 25.7446V28.1777L12.9593 28.3687L14.3431 30.4197V27.7007L14.9711 29.1628L15.5252 26.1742Z" fill="url(#paint25_linear_18888_3054)"/>
<path d="M15.51 24.9653L11.6523 23.6334L14.3986 23.5525L15.2836 23.648L16.7009 23.8549L16.6325 24.5229L15.51 24.9653Z" fill="url(#paint26_linear_18888_3054)"/>
<path d="M12.6022 22.7257C12.6022 22.7257 12.0356 22.8974 11.9625 21.2549C11.9625 21.2549 11.8169 20.7239 12.3993 20.1825L13.2766 19.5947C13.2766 19.5947 12.6523 20.4514 13.0928 20.9127C13.0928 20.9127 13.193 22.1855 12.6022 22.7257Z" fill="url(#paint27_linear_18888_3054)"/>
<path d="M16.7292 23.7594L15.3938 23.5525L14.2724 23.4254L13.779 23.1734L12.7926 22.5353L12.1523 21.9786L12.0645 21.8198L12.601 21.9312L12.0645 21.2555C12.0645 21.2555 12.427 21.041 12.7041 21.2555C12.7041 21.2555 12.1717 20.5799 12.601 20.3572C12.601 20.3572 12.667 20.9772 13.0915 20.9138L13.2242 20.6279L14.3491 21.4946L15.2959 22.2341L15.9033 22.4252L16.7286 23.7606L16.7292 23.7594Z" fill="#FDF0CE"/>
<path d="M15.6114 22.8213C15.6114 22.8213 14.089 22.182 13.7895 21.7618C13.49 21.3417 13.1776 22.1638 15.6114 22.8213Z" fill="url(#paint28_linear_18888_3054)"/>
<path d="M14.1426 22.7041C14.1426 22.7041 13.2383 22.1989 13.0814 21.9159C12.9245 21.6329 12.6698 22.1239 14.1426 22.7041Z" fill="url(#paint29_linear_18888_3054)"/>
<path d="M15.1513 26.0969L13.682 27.3105L12.793 26.4784L13.682 27.9252L15.1513 26.0969Z" fill="#F6E8C8"/>
<path d="M1.86167 24.2603L0.890625 25.1744L1.86167 29.6742V24.3476" fill="#CEB183"/>
<path d="M1.90963 24.165L1.61719 23.1735L8.91857 15.6348L9.22634 16.5407L1.90963 24.165Z" fill="#081935"/>
<path d="M2.07812 24.772L3.03856 27.4429L2.07812 29.8489V24.772Z" fill="#10223A"/>
<path d="M21.3553 16.3233C21.5451 16.3233 21.5451 16.0303 21.3553 16.0303C21.1654 16.0303 21.1654 16.3233 21.3553 16.3233Z" fill="#00081F"/>
<path d="M31.6308 24.7673L30.6816 27.4382L31.6308 29.8449V24.7673Z" fill="#10223A"/>
<path d="M23.6543 8.56236C23.7504 8.53833 29.1497 9.85041 29.1497 9.85041L33.6855 16.2898L33.2774 24.6372L32.8453 24.1601L32.9891 23.8262L32.2934 15.1922L28.0939 10.6842L23.6543 8.56236Z" fill="url(#paint30_linear_18888_3054)"/>
<path d="M9.95327 8.50694C9.85835 8.48291 4.52089 9.79491 4.52089 9.79491L0.0371094 16.2343L0.440385 24.5817L0.867243 24.1047L0.725153 23.7707L1.41319 15.1367L5.56504 10.6288L9.95394 8.50635L9.95327 8.50694Z" fill="url(#paint31_linear_18888_3054)"/>
<path d="M54.7988 12.9257C54.8189 12.9116 54.8407 12.8981 54.8643 12.8853C54.8472 12.8935 54.8324 12.9016 54.8207 12.9087C54.8207 12.9087 54.8201 12.9087 54.8195 12.9087C54.8113 12.9146 54.8035 12.9205 54.7988 12.9257Z" fill="white"/>
<path d="M57.7773 19.5726V19.5744C57.8246 19.5539 57.8693 19.5339 57.9106 19.5134C57.8746 19.5305 57.8293 19.551 57.7773 19.5726Z" fill="white"/>
<path d="M57.9839 19.4729C57.9609 19.4869 57.9361 19.501 57.9102 19.5139C57.9291 19.5052 57.9461 19.4969 57.9597 19.4893C57.9597 19.4893 57.9603 19.4893 57.9609 19.4893C57.9703 19.4834 57.9779 19.4782 57.9839 19.4729Z" fill="white"/>
<path d="M56.4434 15.3874C56.507 15.3598 56.5554 15.3376 56.589 15.3188L56.5867 15.3194C56.5648 15.3305 56.5383 15.3429 56.5082 15.3563C56.487 15.3663 56.4652 15.3762 56.4434 15.3862V15.3874Z" fill="white"/>
<path d="M61.0918 13.6961C61.1325 13.6832 61.1566 13.6762 61.1561 13.6762C61.2646 13.6422 61.363 13.6106 61.4261 13.5537H61.0918V13.6961Z" fill="white"/>
<path d="M37.0996 22.6426H40.5328V18.2506H44.4759V15.4801H40.5328V13.7063H45.5979V10.8174H37.0996V22.6426Z" fill="white"/>
<path d="M55.5541 20.5581C55.4604 20.6015 55.3165 20.6378 55.1868 20.6993C55.1714 20.745 55.1767 20.8699 55.1767 20.8699C55.1491 20.8821 55.0441 20.7943 54.928 20.8482C54.8288 20.8945 54.8218 20.8939 54.8372 20.8862C54.7086 20.9455 54.5017 21.0468 54.4911 20.9776C54.4911 20.9776 54.4333 21.0814 54.3154 20.9865C54.2357 21.1734 54.1839 21.2718 54.0029 21.1833C54.0135 21.3527 53.8767 21.3984 53.7293 21.4206C53.6769 21.4951 53.5807 21.4868 53.4369 21.5578C53.7883 21.3855 53.6769 21.4388 53.3974 21.5736C53.4563 21.5437 53.3467 21.5959 53.2381 21.6474C52.8037 21.8537 52.3839 22.0523 51.9835 22.2364C51.9841 22.2375 52.4033 21.9199 53.1373 21.4388C53.26 21.3586 53.3908 21.2747 53.3225 21.1599C53.6715 21.0966 53.9056 21.1681 53.9752 20.7069C53.9752 20.7069 54.2941 20.7198 54.4751 20.605C54.6361 20.5218 54.8147 20.4204 55.0005 20.3178C55.1549 20.2323 55.3141 20.1467 55.3118 19.9071C55.6436 19.9727 55.81 19.8866 56.0092 19.6767C56.0446 19.6855 56.0912 19.6767 56.1436 19.6586C56.3041 19.1201 56.4131 18.5048 56.4668 17.8016C56.4396 17.8134 56.4119 17.8256 56.3842 17.8374C56.2857 17.8801 56.1873 17.9235 56.0888 17.9674C55.9903 18.0108 55.8919 18.0548 55.7993 18.0858C55.6944 18.1438 55.7469 18.1163 55.5311 18.087C55.4273 18.3079 55.4633 18.1046 55.3878 18.1913C55.379 18.1877 55.211 18.2769 55.1561 18.3624C55.1561 18.3624 55.0788 18.3436 55.0788 18.2423C54.9309 18.6138 54.9663 18.4761 54.7458 18.2816C54.9144 18.5007 54.8866 18.513 54.5866 18.4708C54.6231 18.6355 54.5128 18.6864 54.405 18.7368C54.2994 18.7872 54.1962 18.8365 54.0795 18.8922C53.9781 18.9408 53.8655 18.9952 53.7322 19.0609C53.714 19.0697 53.6939 19.0797 53.6715 19.0907C53.6927 19.0802 53.7122 19.0708 53.7322 19.0609C54.007 18.9261 53.8637 18.9946 53.6244 19.1107C53.5896 19.1265 53.4451 19.1962 53.3013 19.2666C53.1574 19.3369 53.0141 19.4073 53.0454 19.3931C52.8868 19.4699 52.773 19.5262 52.7565 19.4365C52.7441 19.4834 52.7482 19.505 52.7724 19.5074C52.8438 19.4934 52.9186 19.4576 53.0006 19.4183C52.8791 19.4758 52.806 19.5109 52.7724 19.5074C52.7176 19.5186 52.6645 19.5168 52.6102 19.4945C52.5844 19.556 52.5572 19.6146 52.5283 19.6674C52.3243 20.0389 51.9676 20.2926 51.3727 20.2926C51.3302 20.2926 51.289 20.2908 51.2489 20.2885C51.2347 20.2956 51.2206 20.3026 51.2065 20.3097C50.6682 20.5815 50.1488 20.8447 49.6535 21.0908C49.6547 21.092 50.0804 20.745 50.8409 20.2077C50.5509 20.1039 50.3504 19.9112 50.2166 19.6674C50.0668 19.3949 49.9542 19.0005 49.8775 18.5153C49.8203 18.5681 49.7437 18.6203 49.6518 18.6753C49.8586 18.5604 49.8539 18.5646 49.4442 18.7949C49.5191 18.7521 49.5887 18.7134 49.6518 18.6753C49.5834 18.7134 49.4908 18.7644 49.3829 18.8247C49.4749 18.772 49.3051 18.8652 49.1364 18.9589C48.4637 19.3328 47.8187 19.7008 47.2074 20.0506C47.2091 20.053 47.8517 19.5103 48.9967 18.6976C49.1877 18.5622 49.393 18.421 49.2968 18.2798C49.5179 18.2141 49.6859 18.1497 49.818 18.0524C49.7773 17.6522 49.7573 17.2074 49.7573 16.7281C49.7573 15.4102 49.91 14.3461 50.216 13.7887C50.4199 13.4173 50.7767 13.1635 51.3716 13.1635C51.9665 13.1635 52.3231 13.4167 52.5272 13.7887C52.5578 13.8444 52.5861 13.9066 52.6138 13.9716C52.6315 13.9622 52.6498 13.9523 52.668 13.9423C52.8237 13.8591 52.9834 13.7753 53.0713 13.5351C53.3113 13.6071 53.4781 13.5239 53.6491 13.4401C53.7818 13.375 53.9168 13.3106 53.7853 13.3727C53.8661 13.3341 53.9363 13.3012 54.0029 13.2702C54.0689 13.2391 54.1308 13.2104 54.1962 13.1958C54.2593 13.1512 54.3259 13.1208 54.4292 13.1734C54.4757 13.0521 54.5595 13.0141 54.7003 13.0269C54.721 12.9901 54.7493 12.9602 54.7835 12.9338C54.7505 12.9297 54.7681 12.9221 54.8177 12.9074C54.8513 12.8846 54.9144 12.8564 55.0075 12.8154C54.955 12.8383 54.9061 12.86 54.8624 12.8834C54.9073 12.8611 54.9674 12.8353 55.0364 12.8055C55.037 12.8055 55.1815 12.7445 55.327 12.6847C55.3996 12.6549 55.4727 12.625 55.5464 12.5957C55.5694 12.5864 55.5918 12.5775 55.6142 12.5687C55.4061 12.22 55.1643 11.9189 54.8902 11.6598C53.8366 10.6631 52.5106 10.4434 51.3722 10.4434C50.2336 10.4434 48.9077 10.6631 47.8541 11.6598C46.817 12.6396 46.2393 14.2107 46.2393 16.7281C46.2393 19.2455 46.817 20.8159 47.8541 21.7963C48.9077 22.793 50.2336 23.0128 51.3722 23.0128C52.5106 23.0128 53.8366 22.793 54.8902 21.7963C55.284 21.4242 55.6118 20.966 55.8666 20.4034C55.8494 20.4139 55.8317 20.4239 55.8147 20.4356C55.6407 20.5563 55.6473 20.5129 55.5528 20.5563L55.5541 20.5581Z" fill="white"/>
<path d="M65.7317 16.764V16.73C66.9556 16.4088 67.5671 15.6318 67.5671 13.9594C67.5671 11.6958 66.1391 10.8174 62.7737 10.8174H57.7764V11.8282C57.902 11.7925 58.0907 11.7385 58.0972 11.8182C58.0972 11.8182 58.1579 11.7145 58.2646 11.8569C58.3501 11.6641 58.4073 11.5657 58.5729 11.7216C58.5747 11.5235 58.7091 11.5123 58.8512 11.5335C58.9078 11.4649 58.9987 11.5042 59.1413 11.4707C58.7923 11.5546 58.9026 11.5288 59.1808 11.4654C59.1219 11.4801 59.2309 11.4567 59.3388 11.4344C59.7715 11.3465 60.1931 11.2785 60.5947 11.2334C60.5947 11.234 60.1489 11.411 59.4113 11.7063C59.2887 11.7555 59.1578 11.8088 59.2114 11.9624C58.8825 11.9196 58.662 11.7678 58.5712 12.2765C58.5712 12.2765 58.2734 12.1687 58.0983 12.2519C57.9975 12.2865 57.889 12.3286 57.777 12.3743V14.0332C57.8767 14.0379 57.9863 14.021 58.1019 13.9917C58.2292 13.9594 58.3636 13.9137 58.2999 13.9706C58.6909 13.803 58.7174 13.8639 58.7168 13.8633C58.9338 13.7585 58.9898 13.7432 59.1637 13.5686C59.2916 13.5323 59.4903 13.5205 59.8424 13.5592C59.8723 13.5129 59.9119 13.4215 59.9119 13.4215C59.9119 13.4215 60.2426 13.3512 60.5445 13.2996C60.5256 13.2375 60.8476 13.1906 60.8476 13.1912C60.8476 13.1906 61.275 13.1332 61.2709 13.0054C61.6753 13.0371 61.9182 13.0963 61.9589 12.6691C62.2702 12.812 62.627 12.8754 62.848 12.4997C62.8633 12.7201 63.0644 12.6814 63.2678 12.6445C63.4664 12.6105 63.6675 12.5765 63.868 12.5448C64.8703 12.3867 65.8631 12.2812 66.8248 12.2296C66.8265 12.2337 65.7134 12.4382 63.9841 12.8754C63.7371 12.938 63.4783 13.0066 63.3857 13.0318C63.2271 13.074 63.0897 13.1115 62.9996 13.1361C63.0455 13.1244 63.0921 13.1121 63.141 13.0987C62.8274 13.1842 62.8344 13.1812 62.9996 13.1361C62.7955 13.1883 62.6251 13.22 62.4942 13.1672C62.2784 13.3383 62.1228 13.384 61.9088 13.2492C61.8363 13.4683 61.7083 13.5071 61.4861 13.4689C61.4737 13.5041 61.4531 13.5317 61.4265 13.5551H62.8256C63.7943 13.5551 64.0832 13.9606 64.0832 14.822C64.0832 14.849 64.0832 14.8759 64.082 14.9023C64.3886 14.8653 64.6923 14.8343 64.9923 14.8108C64.9929 14.8126 64.655 14.9 64.0732 15.0664C64.0077 15.8299 63.6133 16.1229 62.8256 16.1229H61.0917V15.9599C61.0386 15.9957 60.966 15.9946 60.8699 15.9711C60.847 16.0865 60.7432 16.1229 60.6241 16.1651C60.6253 16.1639 60.3806 16.2501 60.1312 16.3409C59.9024 16.4235 59.6684 16.5102 59.4932 16.771C59.1967 16.6884 58.955 16.781 58.712 16.8759C58.5228 16.9497 58.3324 17.0259 58.5187 16.9538C58.4044 16.9984 58.3052 17.0376 58.2121 17.0745C58.1189 17.1114 58.0323 17.1466 57.9439 17.1665C57.8908 17.197 57.8377 17.2222 57.7776 17.2287V18.9708C57.8814 18.9128 57.9686 18.8284 57.9987 18.6526C58.2794 18.7721 58.4409 18.7088 58.6313 18.56C58.7009 18.5718 58.7769 18.5624 58.8565 18.5424C58.9362 18.5225 59.0192 18.492 58.9821 18.5336C59.2221 18.4194 59.2427 18.4663 59.2427 18.4657C59.3748 18.3924 59.4096 18.3824 59.5098 18.2536C59.5888 18.2295 59.7149 18.226 59.9426 18.2647C59.959 18.2301 59.9779 18.1603 59.9779 18.1603C59.9779 18.1603 60.1842 18.114 60.3723 18.0807C60.3564 18.0326 60.5574 18.0027 60.5574 18.0027C60.5574 18.0027 60.8251 17.9652 60.8134 17.8662C61.0722 17.8961 61.2767 17.8117 61.2898 17.8521C61.4454 17.8047 61.5521 17.7192 61.7755 17.4894C61.8015 17.6594 61.9259 17.6306 62.0509 17.6019C62.1735 17.5755 62.2979 17.5486 62.4217 17.5234C63.0414 17.3998 62.8362 17.5105 63.4293 17.4302C63.4311 17.4331 63.5779 17.4355 62.5196 17.7789C62.3687 17.8287 62.2106 17.882 62.154 17.9014C62.0573 17.9342 61.9743 17.9623 61.9188 17.9811C61.9465 17.9723 61.9749 17.9629 62.0043 17.9529C61.8121 18.0185 61.8169 18.0162 61.9188 17.9811C61.7933 18.0215 61.6877 18.0449 61.6005 18.0033C61.4761 18.1346 61.3806 18.168 61.2355 18.062C61.2054 18.2307 61.127 18.2588 60.9826 18.2266C60.9648 18.3174 60.8824 18.3473 60.7874 18.3824C60.7886 18.3818 60.5941 18.4528 60.3953 18.5272C60.2131 18.5952 60.0268 18.6661 59.8871 18.8729C59.6507 18.8108 59.4585 18.8864 59.2645 18.9632C59.1136 19.0229 58.9614 19.0845 59.11 19.0259C59.0186 19.0622 58.9397 19.0932 58.8653 19.1231C58.7911 19.153 58.7215 19.1812 58.6513 19.197C58.5788 19.2391 58.5046 19.2696 58.4038 19.2304C58.3377 19.3382 58.2457 19.3769 58.0989 19.3775C58.0724 19.4108 58.0388 19.439 57.9999 19.4648C58.0341 19.4654 58.0146 19.4736 57.9609 19.4906C57.9261 19.511 57.8654 19.538 57.7776 19.5761V22.6443H61.0922V18.6913H62.3162C63.914 18.6913 64.0667 19.0798 64.0838 20.1106C64.1009 20.8876 64.1179 21.6476 64.1857 22.6443H67.7038V22.526C67.5677 21.5632 67.534 21.1577 67.4998 19.2485C67.4827 17.9817 67.1939 17.0189 65.7323 16.7652L65.7317 16.764Z" fill="white"/>
<path d="M68.459 13.7397H71.4847V22.6426H74.9179V13.7397H77.9436V10.8174H68.459V13.7397Z" fill="white"/>
<path d="M85.7965 17.2029C85.7965 18.0982 85.7629 18.6555 85.6948 19.044C85.5588 19.804 85.1514 20.2266 84.2836 20.2266C83.4167 20.2266 83.0093 19.804 82.873 19.044C82.8052 18.6555 82.7711 18.0982 82.7711 17.2029V10.8174H79.3379V17.8785C79.3379 21.5104 81.1733 23.0141 84.2836 23.0141C87.3942 23.0141 89.2296 21.5104 89.2296 17.8785V10.8174H85.7965V17.2029Z" fill="white"/>
<path d="M97.0383 16.9667H97.0215L93.9286 10.8174H90.5283V22.6426H93.8766V16.5102H93.8942L96.9879 22.6426H100.387V10.8174H97.0383V16.9667Z" fill="white"/>
<path d="M110.88 13.6219V10.8174H101.889V22.6426H110.88V19.8046H105.152V17.8785H108.942V15.2099H105.152V13.6219H110.88Z" fill="white"/>
<path d="M77.5396 32.9067C77.4742 32.9114 77.3935 32.8903 77.4636 32.7549C78.4606 30.7755 79.8709 28.1005 81.8583 25.0058C81.5972 25.0369 81.4521 24.85 81.3944 24.5793C81.3554 24.3988 81.3018 23.9962 81.2935 23.879C81.28 23.6833 81.3796 23.5983 81.6755 23.4993C81.9585 23.4014 82.4916 23.3001 83.0399 23.2233C83.1342 23.0598 83.2421 22.9086 83.3506 22.7568C83.531 22.509 83.6453 22.4486 83.8352 22.5278C83.9708 22.584 84.272 22.7469 84.4652 22.8775C84.5341 22.9251 84.5937 23.0129 84.6139 23.1161C85.432 23.1524 86.1317 23.3534 86.6257 23.8303C86.9071 24.0865 87.0977 24.5711 87.1221 24.9227C87.2565 26.8775 84.6844 29.1342 82.843 29.5602C82.2852 29.6897 82.0252 29.5502 81.8837 29.4026C81.7558 29.2672 81.639 29.1049 81.5488 28.9407C80.7718 30.2897 80.0023 31.5467 79.4623 32.3166C79.2819 32.5645 79.0773 32.6571 78.7624 32.6782C78.1481 32.7462 77.789 32.8886 77.5396 32.9049V32.9067ZM84.0477 24.465C83.5322 25.4037 82.807 26.7357 82.0423 28.0712C83.7167 27.7085 86.0897 26.0027 86.3081 24.5869C86.0192 24.397 85.5782 24.3091 84.9356 24.3525C84.6727 24.37 84.3719 24.4035 84.0477 24.465Z" fill="#BE9961"/>
<path d="M86.4594 31.7647C86.136 31.276 85.8815 30.8348 86.1999 30.2898C87.47 28.056 89.78 24.2986 90.8501 22.6151C91.1231 22.1774 91.1979 22.1199 91.3348 22.1897C91.5818 22.3298 91.8984 22.5313 92.079 22.6632C92.426 22.9146 92.3386 23.1824 92.0244 23.78C91.1945 25.3159 89.4532 28.3542 87.963 30.8254C89.2608 30.5406 90.6519 30.2634 91.9396 30.0314C92.1084 29.9938 92.1639 30.029 92.1681 30.0946C92.1723 30.1603 92.1185 30.3337 92.0782 30.5195C92.048 30.6525 92.0505 30.6918 91.7313 30.8312C90.5544 31.3434 88.3259 32.0835 87.3868 32.2259C86.8912 32.2986 86.6804 32.1028 86.4594 31.7647Z" fill="#BE9961"/>
<path d="M98.0872 31.6691C98.2124 30.4297 98.4762 28.9061 98.8105 27.4429C97.4295 28.0477 96.1804 28.6559 95.2052 29.2326C94.4492 30.3055 94.1695 30.8346 94.0636 31.4048C94.0326 31.5378 94.0132 31.631 93.9082 31.638C93.7906 31.6462 93.4118 31.5015 93.0103 31.2144C92.4298 30.8218 92.4105 30.3518 92.9565 29.4763C94.2165 27.4922 97.5639 23.6774 98.8054 22.5716C99.5631 21.9047 99.8134 21.7172 100.128 21.6962C100.351 21.681 100.786 21.8743 101.227 21.9622C101.776 22.0823 101.904 22.4269 101.675 22.9138C101.215 23.8877 100.777 24.9911 100.381 26.1444C100.436 26.1666 100.491 26.2024 100.548 26.2511C100.729 26.4086 100.774 26.4972 100.779 26.5628C100.783 26.6149 100.758 26.6425 100.476 26.7538L100.13 26.895C99.7051 28.1807 99.3372 29.5413 99.0087 30.8862C98.9155 31.2589 98.7928 31.3855 98.5921 31.5431C98.5291 31.5864 98.3653 31.6896 98.2645 31.7616C98.1897 31.8191 98.0713 31.8273 98.0872 31.6691ZM99.0348 26.4848C99.3052 25.4318 99.5808 24.4573 99.8571 23.6791C98.9449 24.5921 97.7563 25.9036 96.6055 27.3568C97.3884 27.055 98.2107 26.7632 99.0348 26.4848Z" fill="#BE9961"/>
<path d="M101.474 30.5487C101.991 29.6363 102.767 28.2873 103.591 26.8564C103.747 25.1042 103.925 23.0756 104.069 21.7301C104.111 21.3867 104.171 21.2912 104.275 21.2843C104.459 21.2719 105.14 21.409 105.343 21.4864C105.683 21.6334 105.82 21.8995 105.742 22.8863C105.674 23.6111 105.606 24.7415 105.532 25.7682C107.233 23.8848 108.747 22.329 110.068 21.0346C110.215 20.8805 110.295 20.8881 110.358 21.041C110.408 21.1945 110.426 21.2591 110.431 21.3369C110.436 21.402 110.429 21.494 110.343 21.5919C108.628 23.4629 107.236 25.0632 105.569 27.062C104.98 28.084 104.415 29.0649 103.965 29.8027C103.716 30.2123 103.559 30.4192 103.131 30.5141C102.689 30.6096 102.206 30.6688 101.857 30.7707C101.444 30.8903 101.343 30.7661 101.473 30.5481L101.474 30.5487Z" fill="#BE9961"/>
<path d="M55.6965 15.7014C55.5703 15.7554 55.4442 15.8105 55.318 15.8656C55.1918 15.9206 55.0657 15.9763 54.9489 16.0179C54.8132 16.0888 54.8811 16.0548 54.6187 16.0466C54.4683 16.2892 54.5332 16.0718 54.4318 16.1714C54.4212 16.1685 54.206 16.2799 54.1294 16.376C54.1294 16.376 54.0362 16.3648 54.0468 16.2582C53.8263 16.6648 53.8841 16.516 53.6341 16.3361C53.8181 16.5477 53.7827 16.5634 53.4201 16.5535C53.4478 16.7223 53.3075 16.7891 53.1707 16.8547C53.1088 16.8846 53.0481 16.9145 52.9862 16.945C52.9762 17.7232 52.9101 18.4029 52.7881 18.9308C52.9709 18.83 53.1689 18.714 53.3747 18.5957C53.5669 18.4855 53.765 18.3753 53.7544 18.0706C54.1748 18.1509 54.3823 18.0408 54.6276 17.7724C54.8138 17.8169 55.2272 17.4981 55.4553 17.3897C55.8557 17.1987 56.1151 17.167 56.503 17.0193C56.5048 16.9244 56.506 16.8283 56.506 16.7299C56.506 16.2488 56.4848 15.8022 56.4435 15.3874C56.3898 15.4108 56.3273 15.4372 56.2524 15.4688C56.3197 15.4401 56.3834 15.4131 56.4435 15.3862C56.4435 15.3862 56.4435 15.3856 56.4435 15.385C56.3745 15.4149 56.2932 15.4489 56.2029 15.487C56.2018 15.487 55.9488 15.5931 55.6965 15.7014Z" fill="white"/>
<path d="M53.5432 15.8116C53.7667 15.8374 54.3073 15.4582 54.5991 15.3223C55.1811 15.0498 55.5195 15.0117 56.1421 14.751C56.2105 14.7222 56.2789 14.6941 56.3449 14.6613C56.2517 14.131 56.1191 13.6617 55.9498 13.2456C55.684 13.3411 55.4894 13.3417 55.1846 13.4729C55.0448 13.5333 54.904 13.5948 54.9028 13.882C54.6221 13.7173 54.4782 13.7794 54.3267 13.9405C54.2595 13.9224 54.1899 13.9289 54.1186 13.9482C54.0479 13.9669 53.9753 13.9986 54.0025 13.9523C53.7997 14.0748 53.7714 14.0208 53.7714 14.0208C53.6629 14.1017 53.6322 14.1128 53.5673 14.2599C53.499 14.2863 53.3822 14.2875 53.1605 14.2423C53.1535 14.2828 53.1529 14.3631 53.1529 14.3631C53.1529 14.3631 52.9719 14.417 52.8056 14.4603C52.8145 14.4773 52.8027 14.4932 52.7832 14.5066C52.89 14.9595 52.9548 15.528 52.9777 16.1761C53.1841 16.1116 53.3533 15.9903 53.5432 15.8116Z" fill="white"/>
<path d="M57.9124 16.3541C58.0002 16.3699 58.0957 16.3588 58.196 16.3341C58.2962 16.3095 58.4011 16.2721 58.354 16.3242C58.6552 16.1819 58.6818 16.2416 58.6818 16.2416C58.8474 16.1502 58.8917 16.1378 59.0173 15.9756C59.1169 15.9462 59.2761 15.9439 59.562 15.9972C59.5827 15.9533 59.6063 15.8654 59.6063 15.8654C59.6063 15.8654 59.8657 15.8103 60.1033 15.771C60.0832 15.7095 60.3367 15.6755 60.3367 15.6755C60.3367 15.6755 60.6734 15.6333 60.6598 15.5073C60.9021 15.5402 61.039 15.4927 61.092 15.2935V13.696C60.9835 13.7301 60.753 13.8027 60.5189 13.8789C60.2235 13.975 59.9211 14.077 59.6741 14.3547C59.3114 14.2873 59.0001 14.3975 58.6871 14.5118C58.4436 14.6008 58.1978 14.6929 58.4377 14.6049C58.2903 14.6589 58.163 14.7069 58.0433 14.7514C57.9513 14.786 57.864 14.8194 57.7773 14.8452V16.4485C57.8222 16.4215 57.867 16.3893 57.913 16.353L57.9124 16.3541Z" fill="white"/>
</g>
<defs>
<linearGradient id="paint0_linear_18888_3054" x1="22.0324" y1="6.3045" x2="27.9061" y2="11.7619" gradientUnits="userSpaceOnUse">
<stop stop-color="#FEE8C1"/>
<stop offset="0.6" stop-color="#9E7A45"/>
</linearGradient>
<linearGradient id="paint1_linear_18888_3054" x1="15.7268" y1="13.4918" x2="24.2885" y2="21.4466" gradientUnits="userSpaceOnUse">
<stop stop-color="#FEE8C1"/>
<stop offset="0.6" stop-color="#9E7A45"/>
</linearGradient>
<linearGradient id="paint2_linear_18888_3054" x1="25.7402" y1="14.5383" x2="32.5596" y2="20.8746" gradientUnits="userSpaceOnUse">
<stop stop-color="#FEE8C1"/>
<stop offset="0.6" stop-color="#9E7A45"/>
</linearGradient>
<linearGradient id="paint3_linear_18888_3054" x1="24.8453" y1="19.3534" x2="30.2987" y2="24.4208" gradientUnits="userSpaceOnUse">
<stop stop-color="#FEE8C1"/>
<stop offset="0.6" stop-color="#9E7A45"/>
</linearGradient>
<linearGradient id="paint4_linear_18888_3054" x1="27.8364" y1="25.6168" x2="30.2577" y2="27.8671" gradientUnits="userSpaceOnUse">
<stop stop-color="#FEE8C1"/>
<stop offset="0.6" stop-color="#9E7A45"/>
</linearGradient>
<linearGradient id="paint5_linear_18888_3054" x1="17.8669" y1="19.4032" x2="20.6692" y2="16.8905" gradientUnits="userSpaceOnUse">
<stop stop-color="#FEE8C1"/>
<stop offset="0.51" stop-color="#9E7A45"/>
</linearGradient>
<linearGradient id="paint6_linear_18888_3054" x1="20.0561" y1="34.3341" x2="20.1429" y2="40.5761" gradientUnits="userSpaceOnUse">
<stop stop-color="#FEE8C1"/>
<stop offset="0.47" stop-color="#9E7A45"/>
</linearGradient>
<linearGradient id="paint7_linear_18888_3054" x1="16.918" y1="29.7893" x2="21.2131" y2="29.7893" gradientUnits="userSpaceOnUse">
<stop stop-color="#FEE8C1"/>
<stop offset="0.6" stop-color="#9E7A45"/>
</linearGradient>
<linearGradient id="paint8_linear_18888_3054" x1="18.7334" y1="16.4913" x2="17.4178" y2="12.63" gradientUnits="userSpaceOnUse">
<stop stop-color="#FEE8C1"/>
<stop offset="0.51" stop-color="#9E7A45"/>
</linearGradient>
<linearGradient id="paint9_linear_18888_3054" x1="20.9629" y1="16.5795" x2="23.5799" y2="19.0114" gradientUnits="userSpaceOnUse">
<stop stop-color="#FEE8C1"/>
<stop offset="0.6" stop-color="#9E7A45"/>
</linearGradient>
<linearGradient id="paint10_linear_18888_3054" x1="18.0104" y1="29.1712" x2="20.0169" y2="25.3785" gradientUnits="userSpaceOnUse">
<stop stop-color="#FEE8C1"/>
<stop offset="0.51" stop-color="#9E7A45"/>
</linearGradient>
<linearGradient id="paint11_linear_18888_3054" x1="18.9861" y1="25.0986" x2="21.2007" y2="20.6711" gradientUnits="userSpaceOnUse">
<stop stop-color="#FEE8C1"/>
<stop offset="0.51" stop-color="#9E7A45"/>
</linearGradient>
<linearGradient id="paint12_linear_18888_3054" x1="20.4527" y1="21.1431" x2="22.9182" y2="21.2273" gradientUnits="userSpaceOnUse">
<stop stop-color="#FEE8C1"/>
<stop offset="0.51" stop-color="#9E7A45"/>
</linearGradient>
<linearGradient id="paint13_linear_18888_3054" x1="18.836" y1="23.1071" x2="19.6989" y2="21.3824" gradientUnits="userSpaceOnUse">
<stop stop-color="#FEE8C1"/>
<stop offset="0.51" stop-color="#9E7A45"/>
</linearGradient>
<linearGradient id="paint14_linear_18888_3054" x1="20.0916" y1="22.84" x2="20.5086" y2="21.7026" gradientUnits="userSpaceOnUse">
<stop stop-color="#FEE8C1"/>
<stop offset="0.51" stop-color="#9E7A45"/>
</linearGradient>
<linearGradient id="paint15_linear_18888_3054" x1="12.5815" y1="6.3094" x2="6.70373" y2="11.8251" gradientUnits="userSpaceOnUse">
<stop stop-color="#FEE8C1"/>
<stop offset="0.6" stop-color="#9E7A45"/>
</linearGradient>
<linearGradient id="paint16_linear_18888_3054" x1="18.9488" y1="13.4958" x2="10.3818" y2="21.5363" gradientUnits="userSpaceOnUse">
<stop stop-color="#FEE8C1"/>
<stop offset="0.6" stop-color="#9E7A45"/>
</linearGradient>
<linearGradient id="paint17_linear_18888_3054" x1="8.83601" y1="14.5431" x2="2.01261" y2="20.9471" gradientUnits="userSpaceOnUse">
<stop stop-color="#FEE8C1"/>
<stop offset="0.6" stop-color="#9E7A45"/>
</linearGradient>
<linearGradient id="paint18_linear_18888_3054" x1="9.73992" y1="19.358" x2="4.28224" y2="24.4796" gradientUnits="userSpaceOnUse">
<stop stop-color="#FEE8C1"/>
<stop offset="0.6" stop-color="#9E7A45"/>
</linearGradient>
<linearGradient id="paint19_linear_18888_3054" x1="6.71907" y1="25.6218" x2="4.29617" y2="27.8955" gradientUnits="userSpaceOnUse">
<stop stop-color="#FEE8C1"/>
<stop offset="0.6" stop-color="#9E7A45"/>
</linearGradient>
<linearGradient id="paint20_linear_18888_3054" x1="16.7899" y1="19.4073" x2="13.984" y2="16.8674" gradientUnits="userSpaceOnUse">
<stop stop-color="#FEE8C1"/>
<stop offset="0.51" stop-color="#9E7A45"/>
</linearGradient>
<linearGradient id="paint21_linear_18888_3054" x1="14.5773" y1="34.3388" x2="14.4914" y2="40.5808" gradientUnits="userSpaceOnUse">
<stop stop-color="#FEE8C1"/>
<stop offset="0.47" stop-color="#9E7A45"/>
</linearGradient>
<linearGradient id="paint22_linear_18888_3054" x1="17.7665" y1="29.8114" x2="13.4278" y2="29.8114" gradientUnits="userSpaceOnUse">
<stop stop-color="#FEE8C1"/>
<stop offset="0.6" stop-color="#9E7A45"/>
</linearGradient>
<linearGradient id="paint23_linear_18888_3054" x1="15.9144" y1="16.4961" x2="17.2191" y2="12.6263" gradientUnits="userSpaceOnUse">
<stop stop-color="#FEE8C1"/>
<stop offset="0.51" stop-color="#9E7A45"/>
</linearGradient>
<linearGradient id="paint24_linear_18888_3054" x1="13.6618" y1="16.5841" x2="11.0429" y2="19.042" gradientUnits="userSpaceOnUse">
<stop stop-color="#FEE8C1"/>
<stop offset="0.6" stop-color="#9E7A45"/>
</linearGradient>
<linearGradient id="paint25_linear_18888_3054" x1="16.6636" y1="29.1352" x2="14.6683" y2="25.3261" gradientUnits="userSpaceOnUse">
<stop stop-color="#FEE8C1"/>
<stop offset="0.51" stop-color="#9E7A45"/>
</linearGradient>
<linearGradient id="paint26_linear_18888_3054" x1="15.6585" y1="25.103" x2="13.4572" y2="20.658" gradientUnits="userSpaceOnUse">
<stop stop-color="#FEE8C1"/>
<stop offset="0.51" stop-color="#9E7A45"/>
</linearGradient>
<linearGradient id="paint27_linear_18888_3054" x1="14.1764" y1="21.1476" x2="11.6862" y2="21.233" gradientUnits="userSpaceOnUse">
<stop stop-color="#FEE8C1"/>
<stop offset="0.51" stop-color="#9E7A45"/>
</linearGradient>
<linearGradient id="paint28_linear_18888_3054" x1="15.8091" y1="23.1119" x2="14.9519" y2="21.3798" gradientUnits="userSpaceOnUse">
<stop stop-color="#FEE8C1"/>
<stop offset="0.51" stop-color="#9E7A45"/>
</linearGradient>
<linearGradient id="paint29_linear_18888_3054" x1="14.5602" y1="22.9423" x2="14.1461" y2="21.8012" gradientUnits="userSpaceOnUse">
<stop stop-color="#FEE8C1"/>
<stop offset="0.51" stop-color="#9E7A45"/>
</linearGradient>
<linearGradient id="paint30_linear_18888_3054" x1="22.7805" y1="9.5029" x2="35.9602" y2="21.7495" gradientUnits="userSpaceOnUse">
<stop stop-color="#FEE8C1"/>
<stop offset="0.6" stop-color="#9E7A45"/>
</linearGradient>
<linearGradient id="paint31_linear_18888_3054" x1="10.3871" y1="9.4474" x2="-2.78226" y2="21.5626" gradientUnits="userSpaceOnUse">
<stop stop-color="#FEE8C1"/>
<stop offset="0.6" stop-color="#9E7A45"/>
</linearGradient>
</defs>
</svg>
