<svg width="212" height="44" viewBox="0 0 212 44" fill="none" xmlns="http://www.w3.org/2000/svg">
<path d="M57.8237 10.9147L65.5358 9.07129V35.6009H57.8237V10.9147ZM67.1554 26.3078V18.0173L73.2479 9.07129L80.7324 9.99298L72.5153 21.5649L81.7698 35.6009H73.1322L67.1554 26.3078Z" fill="url(#paint0_linear)"/>
<path d="M90.1612 9.07129H90.8167L93.863 19.6369L89.4285 35.6009H81.7165L90.1612 9.07129ZM98.8373 30.8965H93.3194L94.9389 24.9582H97.1021L92.5519 9.07129H99.6085L108.053 35.6009H100.187L98.8373 30.8965Z" fill="url(#paint1_linear)"/>
<path d="M110.618 10.9147L118.331 9.07129V35.6009H110.618V10.9147ZM120.872 26.3078V18.0173L126.043 9.07129L133.527 9.99298L125.31 21.5649L134.564 35.6009H125.927L120.872 26.3078Z" fill="url(#paint2_linear)"/>
<path d="M142.956 9.07129H143.611L146.658 19.6369L142.223 35.6009H134.511L142.956 9.07129ZM151.632 30.8965H146.114L147.734 24.9582H149.897L145.347 9.07129L152.403 10.9147L160.848 35.6009H152.982L151.632 30.8965Z" fill="url(#paint3_linear)"/>
<path d="M163.413 10.9147L171.125 9.07129V35.6009H163.413V10.9147ZM173.666 29.7011H173.975C175.235 29.7011 175.2 29.6497 175.714 29.5469C176.254 29.4184 176.652 29.1356 176.909 28.6986C177.192 28.2358 177.346 27.5032 177.372 26.5006C177.423 25.2153 177.449 23.8271 177.449 22.3361C177.449 20.8708 177.423 19.4698 177.372 18.133C177.321 17.1304 177.153 16.3978 176.871 15.9351C176.614 15.4723 176.189 15.1895 175.598 15.0867C175.007 15.0096 174.159 14.971 173.053 14.971H172.745V9.07129H173.053C175.11 9.07129 176.819 9.16126 178.182 9.34121C179.57 9.52116 180.714 9.80394 181.614 10.1895C182.488 10.5751 183.182 11.1021 183.696 11.7705C184.21 12.4389 184.583 13.2744 184.814 14.277C185.02 15.1767 185.148 16.2435 185.2 17.4775C185.277 18.6857 185.315 20.3052 185.315 22.3361C185.315 24.3926 185.277 26.025 185.2 27.2333C185.148 28.4415 185.02 29.4955 184.814 30.3952C184.583 31.3978 184.21 32.2333 183.696 32.9017C183.182 33.57 182.488 34.097 181.614 34.4826C180.714 34.8682 179.57 35.151 178.182 35.331C176.819 35.5109 176.031 35.6009 173.975 35.6009H173.666V29.7011Z" fill="url(#paint4_linear)"/>
<path d="M200.419 35.9094C197.72 35.9094 195.638 35.6909 194.172 35.2538C192.707 34.8168 191.627 34.1099 190.933 33.133C190.291 32.2333 189.892 31.0893 189.738 29.7011C189.584 28.313 189.507 26.2435 189.507 23.4929V10.9147L197.219 9.07129V25.0353C197.219 25.9865 197.244 26.8991 197.296 27.7731C197.347 28.4672 197.463 28.9685 197.643 29.277C197.823 29.5855 198.131 29.7783 198.568 29.8554C198.954 29.9582 199.571 30.0096 200.419 30.0096H201.306C201.512 30.0096 201.743 29.9839 202 29.9325V35.8708C201.82 35.8965 201.563 35.9094 201.229 35.9094H200.419ZM203.62 9.07129L211.332 10.9147V23.4929C211.332 26.0122 211.28 27.9145 211.177 29.1999C211.075 30.4852 210.792 31.5649 210.329 32.4389C209.815 33.4415 209.031 34.2127 207.977 34.7526C206.923 35.2924 205.471 35.6394 203.62 35.7937V9.07129Z" fill="url(#paint5_linear)"/>
<path d="M1.17792 42.1052L11.6949 32.2068C11.8364 32.0736 12.0234 31.9995 12.2177 31.9995H16.7447C17.154 31.9995 17.4905 32.3227 17.5068 32.7317C17.5562 33.9652 17.7173 35.2166 17.9859 36.4508C18.0656 36.8175 17.8668 37.1878 17.5172 37.3238L1.9774 43.3714C1.88702 43.4066 1.79339 43.4235 1.70102 43.4235C1.44544 43.4235 1.19898 43.2946 1.05582 43.0679C0.860788 42.759 0.912033 42.3554 1.17792 42.1052Z" fill="url(#paint6_linear)"/>
<path d="M15.062 31.9995L3.7182 42.6938L1.97728 43.3712C1.8869 43.4064 1.79327 43.4233 1.7009 43.4233C1.44532 43.4233 1.19886 43.2944 1.05571 43.0677C0.860763 42.7589 0.912007 42.3553 1.1778 42.1051L11.6947 32.2068C11.8362 32.0736 12.0232 31.9995 12.2175 31.9995H15.062Z" fill="url(#paint7_linear)"/>
<path d="M40.2316 10.7986C41.0372 10.2232 42.7028 9.66716 44.8063 12.4092C44.9993 12.6607 45.0148 13.005 44.8479 13.2746C44.8334 13.2979 44.8179 13.3202 44.8013 13.3414C44.2896 14.0832 43.4348 14.6074 42.2599 14.9004C41.423 15.1091 40.7141 15.1201 40.6843 15.1205C40.6812 15.1205 40.678 15.1205 40.6749 15.1205C40.4744 15.1205 40.2818 15.0415 40.1389 14.9004C39.9937 14.7572 39.9122 14.5617 39.9122 14.3578V11.4193C39.9122 11.1729 40.0312 10.9417 40.2316 10.7986Z" fill="#8C6E1A"/>
<path d="M40.0295 7.10543C39.6111 7.11781 39.2591 6.78288 39.2485 6.36181C39.238 5.94065 39.571 5.59081 39.9921 5.58032C40.1942 5.57535 44.9657 5.48967 46.6449 8.30916C47.6138 9.93585 47.3368 12.0987 45.8215 14.7375C45.6853 14.9746 45.4328 15.1204 45.1601 15.1204C45.1544 15.1204 45.1489 15.1204 45.1432 15.1202C44.8642 15.1141 44.6108 14.9561 44.4825 14.7081C44.147 14.0595 42.943 12.1485 41.8485 11.8846C41.5835 11.8207 41.3582 11.8685 41.1183 12.0397C40.7754 12.2847 40.299 12.2051 40.0544 11.8624C39.8095 11.5196 39.8889 11.0432 40.2316 10.7985C40.3407 10.7206 40.4527 10.6525 40.567 10.594L40.1107 7.1048C40.0618 7.1048 40.0335 7.10534 40.0295 7.10543Z" fill="#B29340"/>
<path d="M25.5353 36.5684H27.987L26.3971 32.7526C26.235 32.3637 26.419 31.9172 26.8078 31.7551C27.1964 31.5932 27.6432 31.7769 27.8053 32.1658L29.6397 36.5683H33.5391C33.9604 36.5683 34.3018 36.9098 34.3018 37.331C34.3018 37.7522 33.9604 38.0937 33.5391 38.0937H29.1355C29.1341 38.0937 29.1328 38.0939 29.1314 38.0939L29.1287 38.0937H25.5352C25.1139 38.0937 24.7725 37.7521 24.7725 37.331C24.7724 36.9098 25.114 36.5684 25.5353 36.5684Z" fill="black"/>
<path d="M31.2792 0.576538L36.3228 3.97896L29.3178 9.19599L26.796 6.92772H30.4386L29.3178 3.97896L32.9604 5.11309L31.2792 0.576538Z" fill="url(#paint8_linear)"/>
<path d="M14.2423 29.6141L16.6664 27.1475C16.8864 26.9236 17.2206 26.8352 17.5121 26.9516C17.8727 27.0954 18.0628 27.4793 17.9714 27.8456C17.5943 29.356 17.4378 30.9966 17.5061 32.7224C17.51 32.8203 17.4991 32.9193 17.4662 33.0115C17.352 33.3314 17.0585 33.5252 16.7443 33.5252H14.5147H12.0126H10.2945L11.695 32.207L14.2423 29.6141Z" fill="url(#paint9_linear)"/>
<path d="M13.4412 33.5252H10.2944L11.6949 32.207L14.2423 29.6141L16.6664 27.1475C16.8864 26.9236 17.2206 26.8352 17.5121 26.9516C17.8727 27.0954 18.0628 27.4793 17.9714 27.8456C17.8389 28.3765 17.7351 28.9243 17.6573 29.4854C17.4045 29.7022 17.3544 29.8907 17.0412 30.123L13.4412 33.5252Z" fill="url(#paint10_linear)"/>
<path d="M17.4964 24.6396C19.2853 20.8418 22.5768 18.0535 27.2792 16.3482L29.0862 14.5095V11.2958C29.0862 7.13623 32.4703 3.75208 36.6299 3.75208C39.2811 3.75208 41.438 5.90901 41.438 8.56012V20.0577C41.438 27.4837 35.3967 33.5251 27.9707 33.5251H26.6907C24.3759 35.6061 21.5179 37.6831 18.1119 39.2964C18.0086 39.3453 17.897 39.3698 17.7853 39.3698C17.687 39.3698 17.5887 39.3508 17.4957 39.3127C17.2973 39.2313 17.1422 39.0699 17.0687 38.8683C16.9568 38.5617 14.3668 31.283 17.4964 24.6396Z" fill="url(#paint11_linear)"/>
<path d="M17.4964 24.6396C19.2853 20.8418 22.5768 18.0535 27.2792 16.3482L29.0862 14.5095V11.2958C29.0862 7.13623 32.4703 3.75208 36.63 3.75208C37.1018 3.75208 37.5576 3.82158 37.9888 3.94883C34.6482 4.72408 32.1503 7.72268 32.1503 11.2957V14.5094L30.3434 16.3481C25.641 18.0533 22.3495 20.8418 20.5605 24.6395C17.8706 30.3497 19.4062 36.5293 19.9617 38.3474C19.3641 38.6778 18.7475 38.9952 18.1118 39.2963C18.0086 39.3452 17.8969 39.3697 17.7852 39.3697C17.6869 39.3697 17.5886 39.3507 17.4956 39.3126C17.2972 39.2312 17.1421 39.0698 17.0686 38.8682C16.9568 38.5617 14.3668 31.283 17.4964 24.6396Z" fill="url(#paint12_linear)"/>
<path d="M16.6364 26.9308C16.6583 26.8575 16.6801 26.7841 16.7029 26.7107C16.7981 26.7272 16.8944 26.7445 16.9922 26.7629C23.4424 27.9725 32.9047 25.0276 34.293 24.5773C32.7238 26.9831 30.2193 30.3126 26.7066 33.5252H26.691C24.3762 35.6062 21.5182 37.6832 18.1122 39.2966C18.009 39.3455 17.8974 39.3699 17.7857 39.3699C17.6873 39.3699 17.589 39.351 17.496 39.3128C17.2976 39.2314 17.1425 39.0701 17.0691 38.8684C16.97 38.597 14.9275 32.8556 16.6364 26.9308Z" fill="url(#paint13_linear)"/>
<path d="M15.977 31.0498C24.6013 32.5953 30.0828 29.2533 32.0034 27.7812C30.599 29.5842 28.8388 31.5762 26.7081 33.5251H26.6909C24.3761 35.6062 21.5181 37.6832 18.1121 39.2965C18.0089 39.3454 17.8972 39.3699 17.7855 39.3699C17.6872 39.3699 17.5889 39.3509 17.4959 39.3128C17.2975 39.2313 17.1424 39.07 17.0689 38.8684C16.9934 38.6613 15.7878 35.2737 15.977 31.0498Z" fill="url(#paint14_linear)"/>
<path d="M41.4363 20.1869C41.1228 20.1704 40.7828 20.1275 40.6732 20.1275C40.6214 20.1275 40.5694 20.1221 40.5176 20.1114C35.9596 19.1614 32.7762 15.8528 32.7762 12.0654C32.7762 10.4414 33.357 8.86934 34.4558 7.51902C35.4972 6.23946 36.9547 5.21631 38.6724 4.55918C38.9054 4.46022 39.1717 4.4848 39.3837 4.62226C39.4125 4.64242 39.4412 4.66257 39.4696 4.68327C39.5003 4.70586 39.5305 4.729 39.5606 4.75223C39.5999 4.78259 39.6394 4.81287 39.6777 4.84432C39.7028 4.86483 39.7267 4.88634 39.7514 4.9074C39.8221 4.96795 39.891 5.0305 39.9582 5.09493C39.9853 5.12105 40.013 5.1469 40.0395 5.17356C40.071 5.20519 40.1011 5.23782 40.1318 5.27026C40.1624 5.30289 40.1929 5.33579 40.2226 5.36923C40.2487 5.3986 40.2744 5.42833 40.2998 5.45834C40.3358 5.50091 40.371 5.54429 40.4054 5.58812C40.4231 5.61062 40.4412 5.63286 40.4585 5.65563C40.6256 5.87615 40.7736 6.10968 40.9002 6.3546C40.9005 6.35533 40.901 6.35605 40.9012 6.35668C41.1162 6.77269 41.27 7.21987 41.3566 7.68396C41.3587 7.69534 41.3606 7.70682 41.3627 7.71821C41.3764 7.79431 41.3877 7.87076 41.3977 7.94767C41.4002 7.96729 41.403 7.9869 41.4052 8.00669C41.4134 8.07764 41.4196 8.14903 41.4247 8.2207C41.4262 8.24257 41.4285 8.26426 41.4297 8.28614C41.4348 8.37714 41.438 8.46852 41.438 8.56007V19.3626V20.0577C41.4379 20.101 41.4366 20.1439 41.4363 20.1869Z" fill="url(#paint15_linear)"/>
<path d="M34.4559 7.51902C35.4973 6.23946 36.9548 5.21631 38.6724 4.55918C38.9054 4.46022 39.1717 4.4848 39.3837 4.62226C39.4125 4.64242 39.4412 4.66257 39.4696 4.68327C39.5003 4.70586 39.5305 4.729 39.5606 4.75223C39.5999 4.78259 39.6394 4.81287 39.6777 4.84432C39.7028 4.86483 39.7267 4.88634 39.7514 4.9074C39.8221 4.96795 39.891 5.03049 39.9582 5.09493C39.9853 5.12105 40.013 5.1469 40.0395 5.17356C40.0513 5.18549 40.0627 5.19787 40.0743 5.21007C38.9625 5.82247 38.0053 6.60477 37.2613 7.51893C36.1625 8.86915 35.5817 10.4413 35.5817 12.0653C35.5817 15.3049 37.9119 18.1927 41.438 19.5552V20.0576C41.438 20.1007 41.4367 20.1436 41.4364 20.1868C41.1229 20.1702 40.7828 20.1273 40.6733 20.1273C40.6215 20.1273 40.5695 20.122 40.5177 20.1112C35.9597 19.1613 32.7763 15.8527 32.7763 12.0652C32.7763 10.4413 33.357 8.86925 34.4559 7.51902Z" fill="#BEC1C9"/>
<path d="M36.99 10.6219C37.4758 10.6219 37.8711 10.2273 37.8711 9.74234C37.8711 9.2572 37.4758 8.86279 36.99 8.86279C36.5042 8.86279 36.1089 9.25738 36.1089 9.74234C36.1088 10.2273 36.5041 10.6219 36.99 10.6219Z" fill="#2B2B2B"/>
<path d="M17.0588 38.8411C17.0569 38.8358 17.0549 38.8303 17.0527 38.8238C17.051 38.8194 17.0492 38.8139 17.0473 38.8089C17.0451 38.8025 17.0427 38.7959 17.0402 38.7885C17.0379 38.782 17.0355 38.7749 17.033 38.7678C17.0305 38.7604 17.0279 38.7527 17.0251 38.7447C17.0221 38.7359 17.0189 38.7267 17.0157 38.7171C17.0133 38.71 17.0107 38.7023 17.0082 38.6946C17.0043 38.6832 17.0004 38.6714 16.9963 38.6589C16.9939 38.6519 16.9914 38.6443 16.9889 38.6369C16.9842 38.6226 16.9795 38.6083 16.9745 38.5929C16.9729 38.5878 16.971 38.5821 16.9693 38.5769C16.9422 38.4931 16.9108 38.3929 16.8759 38.2768C16.8751 38.2741 16.8743 38.2715 16.8734 38.2688C16.8652 38.2412 16.8567 38.2127 16.8481 38.1835C16.8467 38.1785 16.8451 38.1736 16.8438 38.1686C16.8355 38.1401 16.8269 38.1106 16.8181 38.0805C16.8163 38.0741 16.8144 38.0677 16.8126 38.0612C16.8038 38.0302 16.7947 37.9984 16.7856 37.9657C16.7844 37.9614 16.7832 37.957 16.782 37.9527C16.2528 36.0642 15.3026 31.5537 16.6357 26.9313C16.6357 26.931 16.6357 26.9308 16.6358 26.9306C16.6576 26.8573 16.6795 26.784 16.7024 26.7107C16.7975 26.7272 16.8938 26.7445 16.9917 26.7628C17.8401 26.922 18.7411 27.0087 19.6685 27.0391C18.2792 31.9862 19.4832 36.7826 19.9614 38.3476C19.7851 38.4451 19.6065 38.5411 19.4269 38.6364C19.3697 38.6665 19.3122 38.6965 19.2547 38.7265C19.1208 38.7963 18.9862 38.8655 18.8505 38.9341C18.7935 38.9628 18.7366 38.9917 18.6793 39.0203C18.4915 39.1136 18.3027 39.2062 18.1116 39.2966C18.0084 39.3455 17.8968 39.37 17.7851 39.37C17.6867 39.37 17.5884 39.3511 17.4954 39.3129C17.297 39.2315 17.1419 39.0702 17.0685 38.8685C17.0668 38.8642 17.0646 38.858 17.062 38.8506C17.0612 38.848 17.0599 38.8443 17.0588 38.8411Z" fill="url(#paint16_linear)"/>
<path d="M17.0561 38.8335C17.0529 38.8246 17.0493 38.814 17.0452 38.8026C17.0436 38.7979 17.0421 38.7934 17.0403 38.7882C17.0281 38.753 17.0126 38.7077 16.9945 38.6527C16.9929 38.6479 16.9913 38.643 16.9897 38.638C16.9811 38.612 16.9719 38.5839 16.9623 38.554C16.9613 38.5508 16.9603 38.5477 16.9592 38.5444C16.9371 38.4754 16.9122 38.396 16.8854 38.3071C16.8839 38.3025 16.8827 38.2979 16.8812 38.2933C16.8399 38.1564 16.7938 37.9973 16.7448 37.8175C16.7442 37.8153 16.7437 37.8129 16.743 37.8108C16.6932 37.6276 16.6404 37.4233 16.5868 37.1996C16.5866 37.1989 16.5863 37.1982 16.5862 37.1975C16.3341 36.1466 16.062 34.6702 15.9809 32.964C15.9808 32.961 15.9806 32.9578 15.9804 32.9548C15.9634 32.5939 15.955 32.2227 15.957 31.8432C15.957 31.8357 15.9571 31.8283 15.9571 31.8207C15.9587 31.5673 15.9651 31.3101 15.9766 31.0497C17.0419 31.2406 18.0592 31.3567 19.0277 31.4112C18.943 34.5972 19.6283 37.2569 19.9614 38.3475C19.7851 38.445 19.6065 38.541 19.4268 38.6363C19.3697 38.6665 19.3122 38.6964 19.2547 38.7264C19.1208 38.7962 18.9862 38.8654 18.8505 38.934C18.7935 38.9627 18.7366 38.9916 18.6793 39.0202C18.4915 39.1135 18.3027 39.2061 18.1116 39.2966C18.0084 39.3455 17.8968 39.3699 17.7851 39.3699C17.6867 39.3699 17.5884 39.351 17.4954 39.3128C17.297 39.2314 17.1419 39.0701 17.0685 38.8684C17.0665 38.8629 17.0631 38.8539 17.0596 38.8439C17.0587 38.8408 17.0574 38.8369 17.0561 38.8335Z" fill="url(#paint17_linear)"/>
<defs>
<linearGradient id="paint0_linear" x1="92.7209" y1="9.4455" x2="193.749" y2="39.137" gradientUnits="userSpaceOnUse">
<stop stop-color="#F8CA00"/>
<stop offset="1" stop-color="#C95C08"/>
</linearGradient>
<linearGradient id="paint1_linear" x1="92.7209" y1="9.4455" x2="193.749" y2="39.137" gradientUnits="userSpaceOnUse">
<stop stop-color="#F8CA00"/>
<stop offset="1" stop-color="#C95C08"/>
</linearGradient>
<linearGradient id="paint2_linear" x1="92.7209" y1="9.4455" x2="193.749" y2="39.137" gradientUnits="userSpaceOnUse">
<stop stop-color="#F8CA00"/>
<stop offset="1" stop-color="#C95C08"/>
</linearGradient>
<linearGradient id="paint3_linear" x1="92.7209" y1="9.4455" x2="193.749" y2="39.137" gradientUnits="userSpaceOnUse">
<stop stop-color="#F8CA00"/>
<stop offset="1" stop-color="#C95C08"/>
</linearGradient>
<linearGradient id="paint4_linear" x1="92.7209" y1="9.4455" x2="193.749" y2="39.137" gradientUnits="userSpaceOnUse">
<stop stop-color="#F8CA00"/>
<stop offset="1" stop-color="#C95C08"/>
</linearGradient>
<linearGradient id="paint5_linear" x1="92.7209" y1="9.4455" x2="193.749" y2="39.137" gradientUnits="userSpaceOnUse">
<stop stop-color="#F8CA00"/>
<stop offset="1" stop-color="#C95C08"/>
</linearGradient>
<linearGradient id="paint6_linear" x1="9.47068" y1="31.9995" x2="9.47068" y2="43.4235" gradientUnits="userSpaceOnUse">
<stop stop-color="#0D32A4"/>
<stop offset="1" stop-color="#268DEC"/>
</linearGradient>
<linearGradient id="paint7_linear" x1="7.99995" y1="31.9995" x2="7.99995" y2="43.4233" gradientUnits="userSpaceOnUse">
<stop stop-color="#0D32A4"/>
<stop offset="1" stop-color="#268DEC"/>
</linearGradient>
<linearGradient id="paint8_linear" x1="31.5594" y1="0.576538" x2="31.5594" y2="9.19599" gradientUnits="userSpaceOnUse">
<stop stop-color="#44AC2C"/>
<stop offset="1" stop-color="#19600D"/>
</linearGradient>
<linearGradient id="paint9_linear" x1="14.1443" y1="26.9003" x2="14.1443" y2="33.5252" gradientUnits="userSpaceOnUse">
<stop stop-color="#0D32A4"/>
<stop offset="1" stop-color="#268DEC"/>
</linearGradient>
<linearGradient id="paint10_linear" x1="14.1443" y1="26.9003" x2="14.1443" y2="33.5252" gradientUnits="userSpaceOnUse">
<stop stop-color="#0D32A4"/>
<stop offset="1" stop-color="#268DEC"/>
</linearGradient>
<linearGradient id="paint11_linear" x1="28.6971" y1="3.75208" x2="28.6971" y2="39.3698" gradientUnits="userSpaceOnUse">
<stop stop-color="#DC9207"/>
<stop offset="0.550667" stop-color="#C65308"/>
<stop offset="1" stop-color="#E49708"/>
</linearGradient>
<linearGradient id="paint12_linear" x1="32.6933" y1="5.79353" x2="17.7227" y2="26.8885" gradientUnits="userSpaceOnUse">
<stop stop-color="#E6CB3E"/>
<stop offset="1" stop-color="#FED51D"/>
</linearGradient>
<linearGradient id="paint13_linear" x1="25.1251" y1="24.5773" x2="25.1251" y2="39.3699" gradientUnits="userSpaceOnUse">
<stop stop-color="#0D32A4"/>
<stop offset="1" stop-color="#268DEC"/>
</linearGradient>
<linearGradient id="paint14_linear" x1="23.9802" y1="27.7812" x2="23.9802" y2="39.3699" gradientUnits="userSpaceOnUse">
<stop stop-color="#0D32A4"/>
<stop offset="1" stop-color="#268DEC"/>
</linearGradient>
<linearGradient id="paint15_linear" x1="37.1071" y1="4.49902" x2="37.1071" y2="20.1869" gradientUnits="userSpaceOnUse">
<stop stop-color="#D8DBE2"/>
<stop offset="1" stop-color="#CED1D9"/>
</linearGradient>
<linearGradient id="paint16_linear" x1="17.959" y1="26.7107" x2="17.959" y2="39.37" gradientUnits="userSpaceOnUse">
<stop stop-color="#0D32A4"/>
<stop offset="1" stop-color="#268DEC"/>
</linearGradient>
<linearGradient id="paint17_linear" x1="17.9591" y1="31.0497" x2="17.9591" y2="39.3699" gradientUnits="userSpaceOnUse">
<stop stop-color="#0D32A4"/>
<stop offset="1" stop-color="#268DEC"/>
</linearGradient>
</defs>
</svg>
